<svg xmlns="http://www.w3.org/2000/svg" viewBox="0 0 750 500"><g id="freepik--background-complete--inject-233"><ellipse cx="378.99" cy="431.95" rx="292.97" ry="7.69" style="fill:#ebebeb;"></ellipse><path d="M13.61,188.84c0,.87-.62-92.94-.62-92.94l23.07-6.48,10.32,25.5s.91-27.41,2.32-28.29c22.3-.4,61.45,.52,61.45,.52,1.19,.36,3.05,35.91,3.05,35.91,2.89-.27,6.64-27.48,9.54-27.3,1.83,.12,3.56-8.14,5.38-8.37,9.5-1.17,19.11-.75,28.67-.33,2.76,.12,5.52,.24,8.28,.36,5.93,.26,11.66,.61,17.59,.87-.13,.3-.19,.76,.12,.84,.1,.02,.2,0,.3-.03,.55-.15,1.15-.11,1.68,.11,.22,.09,.43,.21,.66,.28,.28,.08,.59,.08,.88,.07,2.67-.03,5.48,.25,8.09,.81-.04,.73,.23,1.83,.19,2.56,.97,.71,1.95,1.43,2.92,2.14,.01,.46,.02,1.05,.03,1.51,.89-.07,1.74,.77,1.67,1.66,0,.12-.03,.24,.03,.34,.05,.08,.13,.13,.22,.16,.24,.09,.51,.08,.76,.14,.25,.07,.59,.47,.57,.72,1.45,.53,2.9,1.05,4.35,1.58,.38,.14,.76,.28,1.08,.52,.32,.24,.83,.82,.85,1.22,.56,.39,.63,1.17,.64,1.85,.11,4.76,.3,9.53,1.08,14.22,.08,.5,.17,1.02,.02,1.5-.08,.24-.21,.45-.27,.69-.08,.31-.03,.64,.02,.95,.48,3.2,.63,6.46,.44,9.69-.09,1.48-.13,3.51,.71,4.73,.74,.07,1.45,.44,1.93,1.01,.4,.47,.67,1.08,1.18,1.43,.68,.47,1.71,.4,2.2,1.07,.14,.19,.21,.42,.36,.6,.15,.18,.36,.29,.56,.41,1.15,.63,2.3,1.26,3.45,1.89,1.32,.72,2.64,1.45,3.78,2.42,.67,.57,1.27,1.22,1.99,1.72,2.47,1.7,6.09,1.45,8.08,3.69,.88,0,1.75,.07,2.61,.22,.35,.06,.71,.14,.97,.38,.79,.72,.13,2.16,.44,3.18,1.71-1.4,3.41-2.8,5.12-4.2,.81-.67,1.69-1.36,2.74-1.46,.36-.03,.75,0,1.05-.21,.21-.15,.33-.39,.45-.62,.46-.94,.92-1.91,.92-2.95,0-.54-.13-1.08-.03-1.6,.12-.61,.53-1.13,.72-1.73,.16-.52,.15-1.08,.13-1.63-.05-1.43-.12-2.88,.24-4.27,.16-.6,.4-1.18,.46-1.8,.07-.77-.16-1.54-.26-2.31-.36-2.75,.86-5.52,.58-8.28-.05-.47-.14-.95-.04-1.41,.1-.46,.3-.76,.77-.8,.05-.3,.1-.61,.16-.91,1.94,.59,3.57-2.04,5.59-1.91,.38,.02,.77,.15,1.13,.04,.28-.08,.51-.28,.78-.39,1.08-.42,2.04,.79,3.1,1.28,.6,.28,1.34,.34,1.79,.83,.16,.17,.26,.38,.44,.53,.18,.16,.42,.25,.65,.33,1.23,.45,2.41,1.05,3.51,1.78,.62,.41,1.19,.88,1.73,1.39,.59,.56,1.24,1.21,1.64,1.88,.97,.41,2.15,.16,3.1,.63,.41,.2,.74,.52,1.06,.83,.66,.64,1.32,1.28,1.99,1.92,.65,.62,1.3,1.26,1.73,2.05,.52,.96,.65,2.07,.76,3.16,.27,2.87,.31,5.63,.23,8.52,.38-.32,1-.14,1.31,.25,.31,.39,.38,.91,.44,1.4,.18,1.47,.15,3.02,.23,4.5,2.92,1.74,5.91,3.34,8.98,4.8,.61,.29,1.22,.58,1.87,.76,2.22,.64,4.6,.05,6.88,.41,.32,.05,.66,.13,.89,.35,.24,.22,.2,.81-.01,1.05,6.47-.38,12.68,15.63,19.15,15.77,.36-.5,1.39-17.03,1.99-17.18,2.63-.64,5.64,.14,8.18-.8,3.39-1.26,3.26,15.55,6.12,16.31,.37,.1,.69,.34,.76,.72l3.22,17.19H13.61Z" style="fill:#e0e0e0;"></path><path d="M565.85,188.65l12.62-23.99,31.84-5.19,15.19,4.84,5.45-17.19c.72-.5,1.32-1.15,1.99-1.72,1.14-.97,2.47-1.7,3.78-2.42,1.15-.63,2.3-1.26,3.45-1.89,.2-.11,.41-.23,.56-.41,.15-.18,.22-.41,.36-.6,.48-.67,1.51-.61,2.2-1.07,.51-.35,.78-.96,1.18-1.43,.48-.57,1.19-.93,1.93-1.01,.84-1.22,.8-3.25,.71-4.73-.19-3.23-.04-6.49,.44-9.69,.05-.32,.1-.64,.02-.95-.06-.24-.19-.46-.27-.69-.15-.48-.07-1,.02-1.5,.78-4.7,.97-9.47,1.08-14.22,.02-.68,.08-1.46,.64-1.85,.03-.4,.53-.98,.85-1.22,.32-.24,.71-.38,1.08-.52,1.45-.53,2.9-1.05,4.35-1.58-.03-.26,.32-.66,.57-.72,.25-.07,.52-.06,.76-.14,.09-.03,.17-.08,.22-.16,.06-.1,.04-.22,.03-.34-.06-.89,.79-1.73,1.67-1.66,.01-.46,.02-1.05,.03-1.51,.97-.71,1.95-1.43,2.92-2.14-.04-.73,.23-1.83,.19-2.56,2.61-.56,5.42-.84,8.09-.81,.3,0,.6,0,.88-.07,.23-.07,.44-.19,.66-.28,.53-.22,1.13-.26,1.68-.11,.1,.03,.2,.06,.3,.03,.32-.08,.26-.54,.12-.84,5.93-.26,11.66-.61,17.59-.87,2.76-.12,7.86,16.19,10.62,16.07,9.56-.42,16.83-17.27,26.33-16.1l9.11-.86v101.88l-171.26,.25Z" style="fill:#e0e0e0;"></path><path d="M351.92,110.74c.8,.13,4.95-7.64,8.4-11.01,3.45-3.37,12.76-9.38,12.76-9.38,0,0,5.13-12.52,9.24-18.58,6.56-9.69,20.48-13.54,31.08-8.6,2.74,1.27,8.51,4.79,8.51,4.79,0,0,7.07-2.97,10.62-4.19,9.18-3.14,19.97-.98,27.24,5.44,3.48,3.07,8.98,11.14,8.98,11.14,0,0,14.53,1.45,21.21,3.25,7.48,2.01,14.08,7.08,17.96,13.79,1.6,2.76,2.99,6.02,5.91,7.3,2.28,1,4.88,.5,7.36,.26,9.12-.91,18.55,1.98,25.6,7.84,8.62-5.06,21.29-.62,24.87,8.7-75.95,1.61-225.88-1.8-227.58-1.67,0,0,1.51-10.06,7.85-9.07Z" style="fill:#f5f5f5;"></path><path d="M205.24,72.74c.49,.08,3.01-4.65,5.11-6.7,2.1-2.05,7.76-5.71,7.76-5.71,0,0,3.12-7.62,5.62-11.3,3.99-5.89,12.46-8.23,18.9-5.23,1.66,.78,5.17,2.91,5.17,2.91,0,0,4.3-1.81,6.46-2.55,5.58-1.91,12.15-.6,16.57,3.31,2.12,1.87,5.46,6.78,5.46,6.78,0,0,8.84,.88,12.9,1.97,4.55,1.22,8.57,4.31,10.92,8.38,.97,1.68,1.82,3.66,3.59,4.44,1.38,.61,2.97,.31,4.47,.16,5.54-.55,11.28,1.21,15.57,4.77,5.24-3.08,12.95-.38,15.13,5.29-46.19,.98-137.38-1.1-138.42-1.01,0,0,.92-6.12,4.77-5.52Z" style="fill:#fafafa;"></path><path d="M715.8,188.84c0,.14-157.2,.26-351.08,.26s-351.11-.12-351.11-.26,157.17-.26,351.11-.26,351.08,.12,351.08,.26Z" style="fill:#e0e0e0;"></path><g><path d="M436.57,188.7h5.2v-41.34c0-1.35-1.16-2.44-2.6-2.44h0c-1.43,0-2.6,1.09-2.6,2.44v41.34Z" style="fill:#ebebeb;"></path><path d="M436.67,150.02c-.38,.22-.9,0-1.15-.37-.25-.37-.31-.82-.38-1.26-.08-.44-.19-.9-.52-1.19-.59-.53-1.62-.25-2.06,.41-.44,.66-.4,1.54-.17,2.3,.37,1.22,1.2,2.3,2.29,2.96,.67,.41,1.52,.66,2.25,.38" style="fill:#ebebeb;"></path><path d="M441.16,161.4s2.54-1.34,2.6-4.31c.08-3.95-.68-6.73,1.71-6.73,2.24,0,1.81,2.72,1.94,5.82,.13,3.11-1.07,8.16-5.95,8.57,0,0-1.51-1.53-.31-3.35Z" style="fill:#ebebeb;"></path><path d="M436.84,175.02s-2.78-1.09-3.35-3.91c-.57-2.81-.42-8.23-.52-8.96-.1-.73-.42-2.04-2.34-1.88-1.93,.16-2.19,2.24-2.08,3.96,.1,1.72-.69,14.05,8.3,14.53,0,0,1.42-1.62,0-3.75Z" style="fill:#ebebeb;"></path><path d="M441.77,177.5s.05-5.08,.05-11.36-.02-11.36-.05-11.36-.05,5.08-.05,11.36,.02,11.36,.05,11.36Z" style="fill:#e0e0e0;"></path><path d="M436.57,179.67s.05-6.85,.05-15.3-.02-15.31-.05-15.31-.05,6.85-.05,15.31,.02,15.3,.05,15.3Z" style="fill:#e0e0e0;"></path><path d="M440.19,188.48s.05-9.66,.05-21.58-.02-21.58-.05-21.58-.05,9.66-.05,21.58,.02,21.58,.05,21.58Z" style="fill:#e0e0e0;"></path><path d="M438.31,188.48s.05-9.66,.05-21.58-.02-21.58-.05-21.58-.05,9.66-.05,21.58,.02,21.58,.05,21.58Z" style="fill:#e0e0e0;"></path><path d="M431.41,160.34s0,.02,0,.05v.14c-.02,.12-.04,.3-.05,.53-.03,.46-.06,1.12-.07,1.94-.02,1.64,.08,3.91,.46,6.38,.19,1.24,.44,2.41,.85,3.42,.4,1.01,.98,1.83,1.58,2.4,.6,.57,1.2,.89,1.63,1.04,.43,.16,.69,.18,.69,.18,0,0-.01,0-.04-.02l-.13-.04c-.06-.01-.13-.04-.21-.06-.08-.03-.18-.06-.28-.1-.42-.16-1.01-.49-1.6-1.06-.59-.56-1.15-1.38-1.55-2.38-.4-1-.65-2.17-.84-3.4-.38-2.47-.49-4.67-.49-6.31,0-.82,.02-1.54,.04-2,0-.22,.02-.4,.02-.53v-.14s0-.05,0-.05Z" style="fill:#e0e0e0;"></path><path d="M430.05,160.4s0,.02,0,.05v.15c-.02,.14-.04,.33-.05,.59-.03,.51-.05,1.26-.05,2.18,.02,1.9,.16,4.45,.61,7.17,.23,1.39,.57,2.71,1.16,3.78,.58,1.07,1.28,1.95,2.03,2.51,.37,.28,.74,.48,1.07,.63,.34,.14,.64,.23,.9,.28,.13,.02,.24,.05,.34,.06l.25,.02h.15s.05,.02,.05,.01c0,0-.02,0-.05-.01l-.15-.02-.25-.03-.33-.07c-.25-.06-.55-.15-.88-.3-.33-.15-.69-.36-1.05-.64-.73-.56-1.41-1.43-1.99-2.5-.58-1.07-.91-2.38-1.14-3.76-.45-2.77-.6-5.31-.64-7.15-.02-.92,0-1.66,.02-2.18,0-.25,.02-.45,.02-.59v-.15s0-.05,0-.05Z" style="fill:#e0e0e0;"></path><path d="M441.67,164.05s.05,0,.16-.03c.1-.02,.25-.06,.44-.12,.37-.12,.9-.37,1.46-.8,.72-.56,.98-.78,1.6-1.88,.47-.82,.79-1.81,.97-2.87,.18-1.07,.21-2.1,.2-3.03-.01-.93-.06-1.77-.08-2.47-.03-.7-.04-1.27-.04-1.67v-.45c0-.1,0-.16,0-.16s0,.05-.02,.16c0,.1-.01,.26-.02,.45-.01,.39-.01,.96,0,1.67,.02,.7,.06,1.54,.06,2.47,0,.93-.03,1.95-.21,3.01-.18,1.05-.5,2.04-.95,2.84-.45,.81-1.02,1.44-1.57,1.87-.55,.44-1.07,.69-1.43,.82-.18,.07-.33,.11-.43,.14-.1,.03-.15,.04-.15,.05Z" style="fill:#e0e0e0;"></path><path d="M444.94,150.69s0,.05,0,.13c0,.1,0,.22,.02,.38,.02,.34,.04,.81,.07,1.39,.05,1.17,.11,2.81-.13,4.59-.12,.89-.32,1.72-.57,2.46-.33,.99-.49,1.26-.96,1.8-.38,.44-.79,.7-1.09,.83-.3,.13-.48,.16-.48,.17,0,0,.05,0,.13-.02,.08-.02,.21-.05,.36-.11,.31-.12,.73-.37,1.13-.82,.4-.44,.74-1.08,.99-1.82,.25-.74,.46-1.58,.58-2.47,.24-1.79,.17-3.43,.11-4.6-.03-.59-.07-1.06-.1-1.39l-.04-.38c0-.09-.02-.13-.02-.13Z" style="fill:#e0e0e0;"></path><path d="M434.07,147.18s0,.08,0,.21,.02,.33,.04,.58c.05,.49,.15,1.17,.48,1.86,.42,.9,.75,1.13,1.3,1.4,.22,.11,.41,.17,.55,.2,.14,.03,.21,.03,.21,.02,0-.02-.31-.04-.73-.28-.42-.23-.92-.71-1.24-1.38-.32-.67-.43-1.34-.5-1.82-.03-.22-.06-.42-.08-.57-.02-.14-.03-.21-.04-.21Z" style="fill:#e0e0e0;"></path><path d="M432.83,147.32s0,.1,.02,.28c.02,.18,.06,.45,.11,.77,.12,.64,.3,1.55,.79,2.44,.27,.49,.58,.85,.89,1.11,.33,.29,.69,.48,1,.6,.31,.11,.58,.15,.76,.16,.09,0,.16,0,.21,0,.05,0,.07,0,.07,0,0-.02-.42,.02-1.03-.22-.3-.12-.64-.32-.96-.6-.32-.28-.62-.66-.86-1.09-.49-.87-.68-1.77-.81-2.4-.06-.31-.11-.56-.15-.76-.03-.18-.06-.28-.06-.28Z" style="fill:#e0e0e0;"></path></g><g><path d="M513.88,188.7h3.49v-27.81c0-.91-.78-1.64-1.75-1.64h0c-.97,0-1.75,.73-1.75,1.64v27.81Z" style="fill:#ebebeb;"></path><path d="M514.06,179.5s-1.87-.74-2.25-2.63c-.39-1.89-.28-5.54-.35-6.03-.07-.49-.28-1.37-1.58-1.26s-1.47,1.51-1.4,2.66c.07,1.16-.46,9.45,5.58,9.78,0,0,.96-1.09,0-2.52Z" style="fill:#ebebeb;"></path><path d="M517.37,181.17s.03-3.42,.03-7.64-.02-7.64-.03-7.64-.03,3.42-.03,7.64,.02,7.64,.03,7.64Z" style="fill:#e0e0e0;"></path><path d="M513.88,182.62s.03-4.61,.03-10.29-.02-10.3-.03-10.3-.03,4.61-.03,10.3,.02,10.29,.03,10.29Z" style="fill:#e0e0e0;"></path><path d="M516.32,188.55s.03-6.5,.03-14.51-.02-14.51-.03-14.51-.03,6.5-.03,14.51,.02,14.51,.03,14.51Z" style="fill:#e0e0e0;"></path><path d="M515.05,188.55s.03-6.5,.03-14.51-.02-14.51-.03-14.51-.03,6.5-.03,14.51,.02,14.51,.03,14.51Z" style="fill:#e0e0e0;"></path><path d="M510.41,169.62s0,.01,0,.03v.09c-.02,.08-.03,.2-.04,.35-.02,.31-.04,.75-.05,1.3-.01,1.1,.05,2.63,.31,4.29,.13,.83,.3,1.62,.57,2.3,.27,.68,.66,1.23,1.07,1.61,.4,.38,.81,.6,1.1,.7,.29,.11,.46,.12,.46,.12,0,0,0,0-.03-.01l-.09-.02s-.09-.02-.14-.04c-.06-.02-.12-.04-.19-.07-.28-.11-.68-.33-1.07-.71-.4-.38-.77-.93-1.04-1.6-.27-.67-.44-1.46-.56-2.29-.26-1.66-.33-3.14-.33-4.24,0-.55,.01-1.04,.03-1.34v-.35l.02-.09s0-.03,0-.03Z" style="fill:#e0e0e0;"></path><path d="M509.49,169.66s0,.01,0,.03v.1c-.02,.09-.03,.23-.04,.4-.02,.35-.04,.85-.03,1.47,.01,1.28,.11,2.99,.41,4.82,.15,.93,.38,1.82,.78,2.55,.39,.72,.86,1.31,1.36,1.69,.25,.19,.5,.32,.72,.43,.23,.09,.43,.16,.6,.19,.09,.02,.16,.03,.23,.04l.17,.02h.1s.04,.01,.04,0c0,0-.01,0-.03,0l-.1-.02-.17-.02-.22-.05c-.17-.04-.37-.1-.59-.2-.22-.1-.47-.24-.71-.43-.49-.38-.95-.96-1.34-1.68-.39-.72-.62-1.6-.77-2.53-.31-1.86-.4-3.57-.43-4.81-.01-.62,0-1.12,.01-1.47v-.4l.02-.1s0-.04,0-.04Z" style="fill:#e0e0e0;"></path><g><path d="M516.78,173.36s1.87-.74,2.25-2.63,.28-5.54,.35-6.03,.28-1.37,1.58-1.26,1.47,1.51,1.4,2.66c-.07,1.16,.46,9.45-5.58,9.78,0,0-.96-1.09,0-2.52Z" style="fill:#ebebeb;"></path><path d="M520.43,163.49s0,.01,0,.03v.09c.02,.08,.03,.2,.04,.35,.02,.31,.04,.75,.05,1.31,.01,1.1-.05,2.63-.31,4.29-.13,.83-.3,1.62-.57,2.3-.27,.68-.66,1.23-1.07,1.61-.4,.38-.81,.6-1.1,.7-.29,.11-.46,.12-.46,.12,0,0,0,0,.03-.01l.09-.02s.09-.02,.14-.04c.06-.02,.12-.04,.19-.07,.28-.11,.68-.33,1.07-.71,.4-.38,.77-.93,1.04-1.6,.27-.67,.44-1.46,.56-2.29,.26-1.66,.33-3.14,.33-4.24,0-.55-.01-1.04-.03-1.34v-.35l-.02-.09s0-.03,0-.03Z" style="fill:#e0e0e0;"></path><path d="M521.35,163.53s0,.01,0,.04v.1c.02,.09,.03,.22,.04,.4,.02,.35,.04,.85,.03,1.47-.01,1.28-.11,2.99-.41,4.82-.15,.93-.38,1.82-.78,2.55-.39,.72-.86,1.31-1.36,1.69-.25,.19-.5,.32-.72,.43-.23,.09-.43,.16-.6,.19-.09,.02-.16,.03-.23,.04l-.17,.02h-.1s-.04,.01-.04,0c0,0,.01,0,.03,0l.1-.02,.17-.02,.22-.05c.17-.04,.37-.1,.59-.2,.22-.1,.47-.24,.71-.43,.49-.38,.95-.96,1.34-1.68,.39-.72,.62-1.6,.77-2.53,.31-1.86,.4-3.57,.43-4.81,.01-.62,0-1.12-.01-1.47,0-.17-.01-.3-.01-.4v-.1s0-.04,0-.04Z" style="fill:#e0e0e0;"></path></g></g><g><path d="M375.05,188.7h3.49v-27.81c0-.91-.78-1.64-1.75-1.64h0c-.97,0-1.75,.73-1.75,1.64v27.81Z" style="fill:#ebebeb;"></path><path d="M375.23,179.5s-1.87-.74-2.25-2.63c-.39-1.89-.28-5.54-.35-6.03-.07-.49-.28-1.37-1.58-1.26s-1.47,1.51-1.4,2.66c.07,1.16-.46,9.45,5.58,9.78,0,0,.96-1.09,0-2.52Z" style="fill:#ebebeb;"></path><path d="M378.54,181.17s.03-3.42,.03-7.64-.02-7.64-.03-7.64-.03,3.42-.03,7.64,.02,7.64,.03,7.64Z" style="fill:#e0e0e0;"></path><path d="M375.05,182.62s.03-4.61,.03-10.29-.02-10.3-.03-10.3-.03,4.61-.03,10.3,.02,10.29,.03,10.29Z" style="fill:#e0e0e0;"></path><path d="M377.49,188.55s.03-6.5,.03-14.51-.02-14.51-.03-14.51-.03,6.5-.03,14.51,.02,14.51,.03,14.51Z" style="fill:#e0e0e0;"></path><path d="M376.22,188.55s.03-6.5,.03-14.51-.02-14.51-.03-14.51-.03,6.5-.03,14.51,.02,14.51,.03,14.51Z" style="fill:#e0e0e0;"></path><path d="M371.58,169.62s0,.01,0,.03v.09c-.02,.08-.03,.2-.04,.35-.02,.31-.04,.75-.05,1.3-.01,1.1,.05,2.63,.31,4.29,.13,.83,.3,1.62,.57,2.3,.27,.68,.66,1.23,1.07,1.61,.4,.38,.81,.6,1.1,.7,.29,.11,.46,.12,.46,.12,0,0,0,0-.03-.01l-.09-.02s-.09-.02-.14-.04c-.06-.02-.12-.04-.19-.07-.28-.11-.68-.33-1.07-.71-.4-.38-.77-.93-1.04-1.6-.27-.67-.44-1.46-.56-2.29-.26-1.66-.33-3.14-.33-4.24,0-.55,.01-1.04,.03-1.34,0-.15,.01-.27,.01-.35v-.09s0-.03,0-.03Z" style="fill:#e0e0e0;"></path><path d="M370.66,169.66s0,.01,0,.03v.1c-.02,.09-.03,.23-.04,.4-.02,.35-.04,.85-.03,1.47,.01,1.28,.11,2.99,.41,4.82,.15,.93,.38,1.82,.78,2.55,.39,.72,.86,1.31,1.36,1.69,.25,.19,.5,.32,.72,.43,.23,.09,.43,.16,.6,.19,.09,.02,.16,.03,.23,.04l.17,.02h.1s.04,.01,.04,0c0,0-.01,0-.03,0l-.1-.02-.17-.02-.22-.05c-.17-.04-.37-.1-.59-.2-.22-.1-.47-.24-.71-.43-.49-.38-.95-.96-1.34-1.68-.39-.72-.62-1.6-.77-2.53-.31-1.86-.4-3.57-.43-4.81-.01-.62,0-1.12,.01-1.47v-.4l.02-.1s0-.04,0-.04Z" style="fill:#e0e0e0;"></path><g><path d="M377.95,173.36s1.87-.74,2.25-2.63c.39-1.89,.28-5.54,.35-6.03s.28-1.37,1.58-1.26c1.3,.11,1.47,1.51,1.4,2.66-.07,1.16,.46,9.45-5.58,9.78,0,0-.96-1.09,0-2.52Z" style="fill:#ebebeb;"></path><path d="M381.6,163.49s0,.01,0,.03v.09c.02,.08,.03,.2,.04,.35,.02,.31,.04,.75,.05,1.31,.01,1.1-.05,2.63-.31,4.29-.13,.83-.3,1.62-.57,2.3-.27,.68-.66,1.23-1.07,1.61-.4,.38-.81,.6-1.1,.7-.29,.11-.46,.12-.46,.12,0,0,0,0,.03-.01l.09-.02s.09-.02,.14-.04c.06-.02,.12-.04,.19-.07,.28-.11,.68-.33,1.07-.71,.4-.38,.77-.93,1.04-1.6,.27-.67,.44-1.46,.56-2.29,.26-1.66,.33-3.14,.33-4.24,0-.55-.01-1.04-.03-1.34,0-.15-.01-.27-.01-.35v-.09s0-.03,0-.03Z" style="fill:#e0e0e0;"></path><path d="M382.52,163.53s0,.01,0,.04v.1c.02,.09,.03,.22,.04,.4,.02,.35,.04,.85,.03,1.47-.01,1.28-.11,2.99-.41,4.82-.15,.93-.38,1.82-.78,2.55-.39,.72-.86,1.31-1.36,1.69-.25,.19-.5,.32-.72,.43-.23,.09-.43,.16-.6,.19-.09,.02-.16,.03-.23,.04l-.17,.02h-.1s-.04,.01-.04,0,.01,0,.03,0l.1-.02,.17-.02,.22-.05c.17-.04,.37-.1,.59-.2,.22-.1,.47-.24,.71-.43,.49-.38,.95-.96,1.34-1.68,.39-.72,.62-1.6,.77-2.53,.31-1.86,.4-3.57,.43-4.81,.01-.62,0-1.12-.01-1.47v-.4l-.02-.1s0-.04,0-.04Z" style="fill:#e0e0e0;"></path></g></g></g><g id="freepik--Floor--inject-233"><path d="M715.8,259.94c0,.14-157.2,.26-351.08,.26s-351.11-.12-351.11-.26,157.17-.26,351.11-.26,351.08,.12,351.08,.26Z" style="fill:#263238;"></path></g><g id="freepik--Plant--inject-233"><g><path d="M107.64,221.14c-.45,.15-9.76,12.05-9.42,24.64s1.6,14.11,1.6,14.11l2.46,.31s5.14-14,6.12-23.26c.98-9.26-.76-15.8-.76-15.8Z" style="fill:#263238;"></path><path d="M90.62,218.65s-2.14,12.42-1.08,21.11c1.15,9.47,8.13,19.93,8.13,19.93l3.04-4.83-3.31-19.07s-2.58-11.56-6.77-17.13Z" style="fill:#263238;"></path><g><path d="M98.9,217.05c-.41,.23-7.46,14.39-4.83,27.98,2.62,13.59,4.14,15.08,4.14,15.08h2.49s2.54-15.88,1.82-26.04c-.72-10.17-3.62-17.02-3.62-17.02Z" style="fill:#455a64;"></path><path d="M105.12,222.19s1.66,18.16,.69,22.96-5.11,14.96-5.11,14.96h1.95s6.2-9.02,9.79-16.22c3.59-7.2-2.76-18.16-7.32-21.7Z" style="fill:#455a64;"></path><path d="M85.51,218.65c-.28,.46-7.73,15.99-3.18,23.53,4.56,7.54,12.29,17.93,12.29,17.93h3.59s-11.05-17.59-11.05-23.41-1.66-18.05-1.66-18.05Z" style="fill:#263238;"></path><path d="M115.23,218.65c.28,.46,7.73,15.99,3.18,23.53-4.56,7.54-12.29,17.93-12.29,17.93h-3.59s11.05-17.59,11.05-23.41,1.66-18.05,1.66-18.05Z" style="fill:#263238;"></path><path d="M74.32,228.13c-.14,.34-.41,13.82,4.42,19.3s15.88,12.68,15.88,12.68l4.02-.05s-15.63-17.08-18.39-21.48c-2.76-4.4-5.94-10.45-5.94-10.45Z" style="fill:#455a64;"></path><path d="M123.08,228.13s-5.52,14.39-8.43,17.36c-2.9,2.97-12.71,14.62-12.71,14.62h5.16s10.18-12.45,13.49-15.99c3.32-3.54,2.49-15.99,2.49-15.99Z" style="fill:#455a64;"></path></g></g><g><path d="M685.09,221.14c-.45,.15-9.76,12.05-9.42,24.64s1.6,14.11,1.6,14.11l2.46,.31s5.14-14,6.12-23.26c.98-9.26-.76-15.8-.76-15.8Z" style="fill:#263238;"></path><path d="M668.06,218.65s-2.14,12.42-1.08,21.11c1.15,9.47,8.13,19.93,8.13,19.93l3.04-4.83-3.31-19.07s-2.58-11.56-6.77-17.13Z" style="fill:#263238;"></path><g><path d="M676.35,217.05c-.41,.23-7.46,14.39-4.83,27.98,2.62,13.59,4.14,15.08,4.14,15.08h2.49s2.54-15.88,1.82-26.04c-.72-10.17-3.62-17.02-3.62-17.02Z" style="fill:#455a64;"></path><path d="M682.57,222.19s1.66,18.16,.69,22.96c-.97,4.8-5.11,14.96-5.11,14.96h1.95s6.2-9.02,9.79-16.22c3.59-7.2-2.76-18.16-7.32-21.7Z" style="fill:#455a64;"></path><path d="M662.95,218.65c-.28,.46-7.73,15.99-3.18,23.53,4.56,7.54,12.29,17.93,12.29,17.93h3.59s-11.05-17.59-11.05-23.41-1.66-18.05-1.66-18.05Z" style="fill:#263238;"></path><path d="M692.68,218.65c.28,.46,7.73,15.99,3.18,23.53-4.56,7.54-12.29,17.93-12.29,17.93h-3.59s11.05-17.59,11.05-23.41,1.66-18.05,1.66-18.05Z" style="fill:#263238;"></path><path d="M651.77,228.13c-.14,.34-.41,13.82,4.42,19.3,4.83,5.48,15.88,12.68,15.88,12.68l4.02-.05s-15.63-17.08-18.39-21.48c-2.76-4.4-5.94-10.45-5.94-10.45Z" style="fill:#455a64;"></path><path d="M700.52,228.13s-5.52,14.39-8.43,17.36c-2.9,2.97-12.71,14.62-12.71,14.62h5.16s10.18-12.45,13.49-15.99c3.31-3.54,2.49-15.99,2.49-15.99Z" style="fill:#455a64;"></path></g></g><g><path d="M200.14,259.55h-22.9V77.35c0-5.93,5.13-10.74,11.45-10.74h0c6.32,0,11.45,4.81,11.45,10.74v182.2Z" style="fill:#455a64;"></path><path d="M199.7,89.04c1.68,.99,3.95-.03,5.05-1.64,1.1-1.61,1.35-3.63,1.69-5.55,.34-1.92,.86-3.95,2.3-5.26,2.58-2.36,7.13-1.11,9.06,1.81,1.93,2.92,1.77,6.78,.76,10.13-1.62,5.38-5.29,10.12-10.09,13.04-2.97,1.81-6.68,2.93-9.92,1.66" style="fill:#455a64;"></path><path d="M179.92,139.22s-11.2-5.93-11.47-19c-.36-17.43,3-29.69-7.54-29.68-9.89,0-7.99,11.98-8.56,25.68-.57,13.69,4.73,35.97,26.23,37.77,0,0,6.67-6.77,1.35-14.75Z" style="fill:#455a64;"></path><path d="M198.93,199.24s12.25-4.82,14.78-17.22c2.53-12.4,1.84-36.28,2.3-39.5,.46-3.21,1.84-8.97,10.33-8.28s9.64,9.88,9.19,17.46c-.46,7.58,3.04,61.93-36.59,64.07,0,0-6.28-7.13,0-16.54Z" style="fill:#455a64;"></path><path d="M177.24,210.16c-.12,0-.22-22.41-.22-50.05s.1-50.06,.22-50.06,.22,22.41,.22,50.06-.1,50.05-.22,50.05Z" style="fill:#263238;"></path><path d="M200.14,219.72c-.12,0-.22-30.21-.22-67.46s.1-67.47,.22-67.47,.22,30.2,.22,67.47-.1,67.46-.22,67.46Z" style="fill:#263238;"></path><path d="M184.17,258.56c-.12,0-.22-42.59-.22-95.1s.1-95.11,.22-95.11,.22,42.58,.22,95.11-.1,95.1-.22,95.1Z" style="fill:#263238;"></path><path d="M192.46,258.56c-.12,0-.22-42.59-.22-95.1s.1-95.11,.22-95.11,.22,42.58,.22,95.11-.1,95.1-.22,95.1Z" style="fill:#263238;"></path><path d="M222.88,134.52s.02,.07,.04,.2l.06,.6c.04,.53,.12,1.31,.18,2.32,.14,2.02,.27,4.94,.31,8.55,.09,7.22-.34,17.24-2.03,28.14-.82,5.45-1.94,10.64-3.76,15.09-1.78,4.46-4.33,8.09-6.98,10.57-2.64,2.5-5.29,3.92-7.2,4.6-1.91,.7-3.03,.81-3.03,.81,0,0,.06-.03,.2-.07l.58-.16c.26-.06,.57-.16,.94-.28,.37-.11,.79-.26,1.26-.46,1.87-.73,4.46-2.17,7.04-4.67,2.59-2.48,5.08-6.07,6.82-10.49,1.78-4.41,2.88-9.56,3.7-15,1.68-10.88,2.17-20.86,2.16-28.07,0-3.61-.09-6.53-.17-8.54-.04-.98-.07-1.75-.09-2.32,0-.24-.01-.44-.02-.6,0-.14,0-.21,0-.21Z" style="fill:#263238;"></path><path d="M228.89,134.78s.02,.08,.04,.23c.02,.18,.04,.4,.06,.68,.05,.6,.13,1.47,.18,2.61,.13,2.27,.24,5.55,.21,9.61-.07,8.12-.67,19.35-2.68,31.59-1.01,6.11-2.52,11.92-5.11,16.68-2.56,4.73-5.65,8.61-8.93,11.08-1.63,1.24-3.26,2.13-4.74,2.79-1.5,.62-2.84,1.03-3.95,1.25-.56,.11-1.05,.21-1.49,.28-.43,.04-.79,.08-1.1,.11l-.68,.06c-.15,0-.23,.01-.23,0,0,0,.08-.02,.23-.05,.18-.03,.4-.06,.67-.1,.31-.04,.67-.09,1.09-.15,.43-.09,.92-.2,1.47-.32,1.1-.25,2.42-.68,3.89-1.31,1.45-.68,3.05-1.57,4.64-2.81,3.2-2.47,6.23-6.32,8.76-11.02,2.55-4.71,4.03-10.47,5.03-16.56,2-12.21,2.65-23.42,2.81-31.52,.07-4.05,.01-7.34-.07-9.6-.04-1.11-.07-1.98-.1-2.61,0-.28-.01-.5-.02-.68,0-.15,0-.23,0-.23Z" style="fill:#263238;"></path><path d="M177.67,150.9s-.24-.03-.69-.12c-.45-.08-1.1-.26-1.93-.53-1.65-.54-3.98-1.62-6.45-3.54-2.46-1.92-5.03-4.71-7.07-8.31-2.05-3.59-3.49-7.97-4.28-12.65-.79-4.7-.93-9.24-.88-13.35,.05-4.11,.25-7.8,.37-10.9,.12-3.1,.18-5.61,.18-7.34,0-.83,0-1.5,0-2,0-.46,0-.7,.02-.7,.02,0,.04,.24,.07,.7,.03,.46,.06,1.13,.09,2,.05,1.74,.05,4.25-.04,7.36-.08,3.1-.25,6.8-.27,10.9-.03,4.1,.13,8.61,.91,13.27,.79,4.64,2.2,8.97,4.2,12.53,1.99,3.56,4.5,6.33,6.9,8.26,2.42,1.92,4.7,3.03,6.32,3.62,.82,.29,1.45,.5,1.9,.6,.44,.12,.67,.19,.67,.21Z" style="fill:#263238;"></path><path d="M163.26,91.99s.02,.2,0,.58c-.02,.43-.04,.98-.07,1.67-.07,1.5-.17,3.59-.3,6.14-.2,5.18-.47,12.38,.59,20.22,.52,3.92,1.41,7.59,2.5,10.83,1.09,3.24,2.54,6,4.23,7.94,1.68,1.96,3.5,3.08,4.81,3.66,1.33,.57,2.13,.69,2.12,.73,0,.01-.2-.01-.58-.08-.37-.09-.93-.22-1.61-.49-1.35-.53-3.24-1.64-4.98-3.61-1.76-1.96-3.26-4.76-4.38-8.02-1.12-3.26-2.03-6.96-2.56-10.9-1.07-7.89-.75-15.12-.47-20.3,.15-2.59,.32-4.69,.44-6.14,.06-.69,.12-1.24,.16-1.67,.04-.38,.07-.58,.08-.58Z" style="fill:#263238;"></path><path d="M211.17,76.55s.03,.34,0,.94c-.03,.6-.08,1.48-.2,2.55-.24,2.14-.67,5.16-2.1,8.19-1.44,3.03-3.76,5.2-5.71,6.18-.97,.5-1.83,.77-2.43,.87-.6,.11-.94,.12-.94,.1-.03-.1,1.35-.19,3.21-1.25,1.86-1.02,4.06-3.15,5.46-6.09,1.39-2.95,1.87-5.92,2.19-8.04,.13-.99,.24-1.84,.34-2.53,.08-.6,.13-.93,.17-.93Z" style="fill:#263238;"></path><path d="M216.64,77.15s0,.45-.11,1.25c-.1,.8-.26,1.96-.5,3.39-.51,2.83-1.31,6.85-3.5,10.76-1.1,1.94-2.45,3.63-3.92,4.89-1.47,1.27-3.02,2.12-4.39,2.62-1.38,.5-2.56,.68-3.37,.72-.41,.02-.72,.02-.94,0-.21-.01-.33-.03-.32-.04-.02-.11,1.84,.09,4.52-.97,1.32-.53,2.82-1.39,4.24-2.64,1.42-1.24,2.73-2.9,3.8-4.8,2.15-3.83,2.99-7.79,3.58-10.6,.26-1.36,.47-2.49,.64-3.36,.15-.79,.25-1.23,.28-1.23Z" style="fill:#263238;"></path></g><g><path d="M634.47,259.55h-17.74V118.38c0-4.6,3.97-8.32,8.87-8.32h0c4.9,0,8.87,3.73,8.87,8.32v141.17Z" style="fill:#455a64;"></path><path d="M616.73,221.28c-.1,0-.17-17.36-.17-38.78s.08-38.78,.17-38.78,.17,17.36,.17,38.78-.08,38.78-.17,38.78Z" style="fill:#263238;"></path><path d="M634.47,228.69c-.1,0-.17-23.4-.17-52.27s.08-52.27,.17-52.27,.17,23.4,.17,52.27-.08,52.27-.17,52.27Z" style="fill:#263238;"></path><path d="M622.1,258.78c-.1,0-.17-33-.17-73.69s.08-73.7,.17-73.7,.17,32.99,.17,73.7-.08,73.69-.17,73.69Z" style="fill:#263238;"></path><path d="M628.52,258.78c-.1,0-.17-33-.17-73.69s.08-73.7,.17-73.7,.17,32.99,.17,73.7-.08,73.69-.17,73.69Z" style="fill:#263238;"></path><g><path d="M618.8,209.85s-8.68-4.59-8.89-14.72c-.28-13.51,2.33-23-5.85-23-7.66,0-6.19,9.28-6.63,19.89-.44,10.61,3.66,27.87,20.32,29.26,0,0,5.17-5.24,1.04-11.43Z" style="fill:#455a64;"></path><path d="M617.06,218.9s-.19-.02-.53-.09c-.35-.06-.85-.2-1.5-.41-1.28-.42-3.08-1.26-5-2.74-1.9-1.49-3.89-3.65-5.47-6.44-1.59-2.78-2.7-6.17-3.32-9.8-.61-3.64-.72-7.16-.68-10.34,.04-3.19,.2-6.05,.29-8.45,.1-2.4,.14-4.35,.14-5.69,0-.65,0-1.16,0-1.55,0-.35,0-.54,.02-.54s.03,.18,.05,.54c.03,.35,.05,.88,.07,1.55,.04,1.35,.03,3.29-.03,5.7-.06,2.41-.19,5.27-.21,8.44-.02,3.17,.1,6.67,.7,10.28,.61,3.6,1.7,6.95,3.26,9.71,1.54,2.76,3.49,4.91,5.35,6.4,1.87,1.49,3.64,2.35,4.89,2.8,.63,.22,1.13,.38,1.47,.47,.34,.1,.52,.15,.52,.16Z" style="fill:#263238;"></path><path d="M605.9,173.26s.01,.16,0,.45c-.01,.33-.03,.76-.06,1.3-.06,1.17-.14,2.78-.23,4.76-.16,4.01-.37,9.59,.46,15.67,.4,3.04,1.1,5.88,1.94,8.39,.84,2.51,1.97,4.65,3.28,6.15,1.3,1.52,2.71,2.39,3.73,2.83,1.03,.44,1.65,.53,1.64,.57,0,.01-.16,0-.45-.06-.29-.07-.72-.17-1.25-.38-1.05-.41-2.51-1.27-3.86-2.8-1.36-1.52-2.53-3.68-3.4-6.21-.87-2.53-1.58-5.39-1.98-8.45-.83-6.12-.58-11.71-.36-15.73,.12-2.01,.25-3.63,.34-4.76,.05-.53,.09-.96,.12-1.29,.03-.29,.05-.45,.07-.45Z" style="fill:#263238;"></path></g><g><path d="M631.33,179.86s8.68-4.59,8.89-14.72c.28-13.51-2.33-23,5.85-23,7.66,0,6.19,9.28,6.63,19.89,.44,10.61-3.66,27.87-20.32,29.26,0,0-5.17-5.24-1.04-11.43Z" style="fill:#455a64;"></path><path d="M633.07,188.92s.19-.02,.53-.09c.35-.06,.85-.2,1.5-.41,1.28-.42,3.08-1.26,5-2.74,1.9-1.49,3.89-3.65,5.47-6.44,1.59-2.78,2.7-6.17,3.32-9.8,.61-3.64,.72-7.16,.68-10.34-.04-3.19-.2-6.05-.29-8.45-.1-2.4-.14-4.35-.14-5.69,0-.65,0-1.16,0-1.55,0-.35,0-.54-.02-.54-.01,0-.03,.18-.05,.54-.03,.35-.05,.88-.07,1.55-.04,1.35-.03,3.29,.03,5.7,.06,2.41,.19,5.27,.21,8.44,.02,3.17-.1,6.67-.7,10.28-.61,3.6-1.7,6.95-3.26,9.71-1.54,2.76-3.49,4.91-5.35,6.4-1.87,1.49-3.64,2.35-4.89,2.8-.63,.22-1.13,.38-1.47,.47-.34,.1-.52,.15-.52,.16Z" style="fill:#263238;"></path><path d="M644.24,143.27s-.01,.16,0,.45c.01,.33,.03,.76,.06,1.3,.06,1.17,.14,2.78,.23,4.76,.16,4.01,.37,9.59-.46,15.67-.4,3.04-1.09,5.88-1.94,8.39-.84,2.51-1.97,4.65-3.28,6.15-1.3,1.52-2.71,2.39-3.73,2.83-1.03,.44-1.65,.53-1.64,.57,0,.01,.16,0,.45-.06,.29-.07,.72-.17,1.25-.38,1.05-.41,2.51-1.27,3.86-2.8,1.36-1.52,2.53-3.68,3.4-6.21,.87-2.53,1.58-5.39,1.98-8.45,.83-6.12,.58-11.71,.36-15.73-.12-2.01-.25-3.63-.34-4.76-.05-.53-.09-.96-.12-1.29-.03-.29-.05-.45-.07-.45Z" style="fill:#263238;"></path></g></g></g><g id="freepik--Character--inject-233"><g><g><path d="M392.36,293.06c-1.99-7.46-5.32-15.58-9.15-22.29l-4.57,1.16,9.12,21.13h4.6Z" style="fill:#263238;"></path><path d="M389.75,273.17s16.36,17.06,15.78,16.94,33.22-12.08,37.4-13.03c4.18-.94-5.35,10.12-5.35,10.12,0,0-27.17,15.1-33.21,14.86-6.04-.23-19.41-25.21-19.41-25.21l4.79-3.69Z" style="fill:#ffbf9d;"></path><g><path d="M382.49,261.41s-1.56-1.67-3.24-.55c-1.68,1.12-2.45,2.03-2.45,2.03,0,0-2.74-.06-3.83,.47-1.08,.54-1.36,.94-1.49,1.77-.13,.83,2.26,5.16,2.26,5.16l.87-2.3c.53-1.39,1.97-2.38,3.45-2.33,.41,.01,.28,.39,.57,.63,1.14,.94,1.43,2.62,1.43,2.62l.14,1.76-1.39-.02s-1.48,1.14-1.71,2.49c-.23,1.35,3.19,2.66,4.71,3.2,1.52,.54,3.14,.54,3.14,.54l1.4,1.96,4.3-3.89s-5.98-11.75-8.17-13.53Z" style="fill:#ffbf9d;"></path><path d="M377.71,265.22s-6.14,1.38-2.77,9.5c2.96,7.13,7.57,18.34,7.57,18.34h7.24s-4.45-6.85-6.86-13.92c-2.41-7.07-2.85-10.44-2.85-10.44h0c-.09-1.47-.96-2.78-2.27-3.45l-.06-.03Z" style="fill:#263238;"></path></g><path d="M374.44,268.1c-.03,.05-.47-.12-.83-.76-.37-.61-.48-1.74,.08-2.71,.54-.98,1.43-1.51,2.07-1.75,.65-.24,1.08-.26,1.09-.2,.02,.07-.37,.22-.94,.53-.56,.31-1.31,.83-1.77,1.67-.47,.83-.43,1.73-.2,2.31,.22,.58,.55,.85,.5,.92Z" style="fill:#ff9a6c;"></path><path d="M379.97,266.93c-.08,.11-.74-.25-1.23-1-.5-.75-.57-1.5-.43-1.53,.14-.04,.42,.57,.87,1.24,.44,.67,.89,1.17,.79,1.29Z" style="fill:#ff9a6c;"></path></g><g><g><polygon points="348.58 259.42 369.76 287.47 319.18 292.21 348.58 259.42" style="fill:#263238;"></polygon><path d="M76.11,397.61c1.23,1.23,285.41,8.02,285.41,8.02l295.34-12.34v-63.17l-25-20.84-72.52-13.3s-414.11,.03-416.58-.09c-2.47-.11-72.82,42.03-72.82,42.03l6.17,59.69Z" style="fill:#EA0719;"></path><g style="opacity:.5;"><path d="M76.11,397.61c1.23,1.23,285.41,8.02,285.41,8.02l295.34-12.34v-63.17l-25-20.84-72.52-13.3s-414.11,.03-416.58-.09c-2.47-.11-72.82,42.03-72.82,42.03l6.17,59.69Z"></path></g><path d="M290.22,283.07s4.33-1.64,22.29-14.64c17.96-13,43.14-28.52,52.83-35.38,9.69-6.85,26.7-10.1,26.7-10.1l-72.52,58.69-29.3,1.42Z" style="fill:#455a64;"></path><g><path d="M295.19,279.3h0c-1.44-.08-1.21-.07,0,0Z" style="fill:#EA0719;"></path><path d="M685.64,298.18l2.3-14.97c-9.21,1.73-59.88-6.33-59.88-6.33,0,0-29.37-16.12-65.64-29.37-36.28-13.24-70.25-22.16-70.25-22.16l-9.21,55.95s-1.59-.01-10.36,1.34c-16.09,2.48-141.33,.57-142.22,.58,0,0,73.13-52.97,73.13-57.86s-5.76-4.9-11.52-3.17-77.16,58.16-77.16,58.16c-1.82-.05-15.77-.82-19.64-1.04-.04,0-95.53-2.42-126.04,2.76-30.52,5.18-39.73,3.45-73.7,21.3-33.97,17.85-43.19,32.82-43.19,32.82v43.19l-6.91,17.27c1.15,5.76,36.85,6.33,36.85,6.33l9,.2c-4.34-8.53-6.8-18.17-6.8-28.39,0-34.61,28.06-62.68,62.68-62.68s62.68,28.06,62.68,62.68c0,11.21-2.96,21.73-8.12,30.83l10.7,.24,291.93,5.18,7.74-.44c-3.48-8.09-5.41-17-5.41-26.36,0-36.89,29.91-66.8,66.8-66.8s66.8,29.91,66.8,66.8c0,6.59-.97,12.95-2.75,18.97l46.47-6.56s9.21-9.21,12.09-12.67,8.64-54.13,8.64-59.31-19-26.49-19-26.49Z" style="fill:#EA0719;"></path></g><path d="M55.95,334.87c.6,.19,19.15-5.97,27.94-12.87s12.87-12.24,13.34-12.24-9.51-1.08-14.44,0c-4.93,1.08-33.44,23.08-26.84,25.12Z" style="fill:#e0e0e0;"></path><path d="M203.34,326.48s-.09-.07-.25-.22c-.18-.17-.41-.4-.7-.69-.63-.59-1.47-1.55-2.71-2.63-2.38-2.25-6.05-5.3-10.98-8.47-1.21-.83-2.57-1.54-3.95-2.36-1.39-.79-2.89-1.51-4.42-2.29-3.13-1.43-6.52-2.87-10.23-4-7.38-2.33-15.89-3.71-24.82-3.47-8.93,.33-17.34,2.24-24.56,5.04-3.63,1.36-6.92,3.02-9.96,4.64-2.99,1.71-5.71,3.43-8.06,5.17-4.72,3.47-8.18,6.75-10.42,9.15-1.16,1.16-1.94,2.17-2.54,2.8-.27,.3-.49,.55-.66,.73-.15,.16-.23,.24-.24,.24,0,0,.06-.1,.2-.27l.62-.76c.57-.65,1.33-1.69,2.47-2.87,2.19-2.45,5.63-5.78,10.35-9.3,2.35-1.77,5.07-3.52,8.07-5.25,3.04-1.65,6.35-3.33,10-4.71,7.25-2.84,15.71-4.78,24.71-5.11,9-.24,17.57,1.16,24.98,3.54,3.73,1.15,7.13,2.61,10.27,4.07,1.54,.79,3.04,1.53,4.43,2.33,1.38,.83,2.74,1.56,3.95,2.4,4.93,3.22,8.57,6.33,10.92,8.63,1.22,1.11,2.04,2.09,2.65,2.71,.28,.3,.5,.54,.67,.72,.15,.16,.22,.25,.21,.26Z" style="fill:#263238;"></path><g style="opacity:.3;"><path d="M223.26,318.98s-15.5-8.68-7.95-9.71c7.55-1.02,45.3,0,45.3,0,0,0-32.59,9.71-34.97,9.71"></path></g><path d="M482.96,281.3s1.33-.13,3.85,.02c1.26,.08,2.82,.23,4.64,.59,1.81,.36,3.9,.94,5.99,2.16,2.02,1.26,4.38,2.65,6.23,4.97,1.89,2.29,2.89,5.46,3.27,8.85,.81,6.84-.96,14.64-3.96,22.65-1.5,4.02-3.26,8.17-5.36,12.35-2.08,4.19-4.4,8.49-7.04,12.79-2.61,4.31-5.48,8.68-8.66,13.01-1.55,2.2-3.25,4.32-4.94,6.52-1.78,2.14-3.84,4.09-6.16,5.76-4.67,3.28-10.08,5.65-15.78,7.34-5.7,1.71-11.67,2.9-17.79,3.72-12.24,1.65-25.04,2.08-38.11,2.14-26.16-.28-51.07,.14-73.74-.06-22.66-.17-43.07-.32-60.21-.45-17.13-.19-30.99-.34-40.59-.45-4.78-.07-8.5-.12-11.03-.15-1.25-.02-2.21-.04-2.87-.05-.65-.01-.98-.03-.98-.03,0,0,.33-.02,.98-.02,.66,0,1.62,0,2.87,0,2.54,.01,6.25,.03,11.04,.05,9.6,.07,23.46,.16,40.59,.28,17.14,.1,37.55,.21,60.21,.34,22.66,.17,47.58-.26,73.73,.01,13.06-.06,25.84-.49,38.05-2.12,6.1-.81,12.04-2,17.71-3.69,5.66-1.67,11.03-4.02,15.64-7.25,2.28-1.65,4.31-3.56,6.07-5.66,1.68-2.19,3.38-4.31,4.93-6.49,3.18-4.32,6.05-8.67,8.66-12.96,2.64-4.28,4.96-8.56,7.04-12.74,2.1-4.17,3.87-8.3,5.37-12.3,3.01-7.98,4.79-15.71,4.01-22.49-.37-3.35-1.34-6.47-3.18-8.72-1.81-2.28-4.14-3.68-6.15-4.95-2.05-1.22-4.12-1.81-5.92-2.19-1.8-.37-3.36-.54-4.61-.64-1.26-.09-2.22-.12-2.86-.12-.65,0-.98,0-.98,0Z" style="fill:#263238;"></path><g style="opacity:.3;"><circle cx="465.74" cy="295.97" r="9.78" transform="translate(74.06 684.69) rotate(-77.22)"></circle></g><path d="M490.68,231.46c1.53,.04,40.25,12.29,41.52,16.72,1.26,4.43-6.96,23.08-19.28,26.24-12.33,3.16-29.95,3.08-29.95,3.08l7.71-46.04Z" style="fill:#455a64;"></path><path d="M646.16,299.74c-.08,0,.01-1.28-.55-3.47-.55-2.15-1.98-5.31-5.21-7.75-1.6-1.19-3.62-2.21-5.94-2.61-2.31-.39-4.91-.32-7.39,.63-1.25,.43-2.45,1.09-3.55,1.92-1.12,.81-2.13,1.82-2.97,2.99-1.73,2.3-2.7,5.25-2.73,8.3,.03,3.05,1,6,2.73,8.3,.84,1.17,1.85,2.18,2.97,2.99,1.1,.83,2.31,1.48,3.55,1.92,2.48,.95,5.08,1.02,7.39,.63,2.32-.41,4.34-1.42,5.94-2.61,3.23-2.44,4.66-5.6,5.21-7.75,.56-2.19,.46-3.47,.55-3.47,0,0,.01,.08,.01,.23v.68c0,.3-.02,.67-.1,1.11-.06,.44-.11,.94-.27,1.49-.23,1.12-.74,2.45-1.55,3.86-.82,1.41-2.01,2.88-3.64,4.14-1.63,1.24-3.69,2.31-6.09,2.75-2.38,.42-5.06,.36-7.63-.6-1.29-.44-2.54-1.12-3.69-1.97-1.16-.84-2.21-1.88-3.08-3.08-1.8-2.38-2.81-5.45-2.84-8.6,.03-3.16,1.04-6.22,2.84-8.6,.87-1.21,1.92-2.25,3.08-3.08,1.15-.85,2.39-1.53,3.69-1.97,2.57-.96,5.26-1.03,7.63-.6,2.39,.44,4.46,1.5,6.08,2.75,1.63,1.26,2.82,2.73,3.64,4.14,.81,1.41,1.31,2.74,1.55,3.86,.16,.55,.21,1.06,.27,1.49,.07,.43,.09,.81,.09,1.11v.68c0,.15,0,.23,0,.23Z" style="fill:#263238;"></path><path d="M646.91,349.75s-.08-.12-.23-.38c-.15-.27-.35-.65-.61-1.12-.27-.5-.6-1.11-.98-1.83-.19-.36-.4-.75-.62-1.17-.23-.41-.51-.83-.79-1.28-.57-.91-1.2-1.91-1.88-3.01-.72-1.08-1.58-2.2-2.46-3.43-.85-1.26-1.95-2.45-3.04-3.78-1.06-1.35-2.36-2.63-3.67-4.01-1.27-1.42-2.82-2.69-4.33-4.12-.75-.73-1.61-1.35-2.44-2.04-.85-.67-1.69-1.38-2.59-2.05-.92-.64-1.85-1.3-2.8-1.96-.48-.33-.94-.68-1.44-1-.5-.31-1.01-.61-1.52-.93-1.02-.61-2.04-1.27-3.11-1.87-1.09-.57-2.19-1.15-3.3-1.73-1.1-.62-2.29-1.09-3.46-1.62-1.18-.51-2.35-1.09-3.61-1.51-1.24-.45-2.49-.91-3.75-1.38-1.29-.38-2.59-.76-3.91-1.14-5.29-1.41-10.91-2.35-16.72-2.61-5.81-.17-11.49,.34-16.87,1.36-1.34,.29-2.67,.57-3.98,.85-1.29,.37-2.57,.73-3.84,1.09-1.28,.32-2.49,.82-3.71,1.24-1.21,.45-2.43,.82-3.57,1.36-1.16,.5-2.3,.99-3.42,1.48-1.11,.52-2.17,1.1-3.24,1.64-.53,.27-1.06,.54-1.58,.81-.52,.28-1.01,.59-1.51,.89-.99,.59-1.97,1.18-2.94,1.75-.94,.6-1.84,1.25-2.73,1.86-.88,.62-1.79,1.18-2.59,1.85-1.61,1.31-3.25,2.46-4.63,3.79-1.41,1.28-2.8,2.46-3.96,3.73-1.18,1.25-2.37,2.35-3.31,3.54-.97,1.16-1.91,2.22-2.71,3.24l-2.1,2.86c-.31,.43-.63,.83-.89,1.22-.25,.4-.49,.77-.71,1.12-.44,.69-.81,1.27-1.12,1.75-.3,.46-.53,.81-.7,1.07-.16,.24-.25,.36-.25,.36,0,0,.06-.13,.21-.38,.16-.27,.38-.63,.65-1.1,.3-.49,.66-1.08,1.08-1.78,.21-.35,.45-.73,.69-1.14,.26-.4,.56-.8,.87-1.24,.62-.87,1.32-1.84,2.07-2.9,.79-1.03,1.72-2.1,2.69-3.28,.93-1.2,2.12-2.33,3.29-3.59,1.16-1.28,2.54-2.47,3.95-3.77,1.37-1.34,3.02-2.5,4.63-3.83,.8-.68,1.71-1.24,2.59-1.87,.9-.61,1.79-1.27,2.74-1.88,.97-.58,1.95-1.17,2.94-1.77,.5-.3,1-.61,1.51-.9,.53-.27,1.05-.54,1.59-.82,1.07-.54,2.14-1.13,3.25-1.66,1.13-.49,2.28-.99,3.44-1.5,1.15-.54,2.37-.93,3.59-1.38,1.22-.43,2.44-.92,3.73-1.25,1.28-.37,2.56-.73,3.87-1.11,1.32-.28,2.66-.57,4.01-.86,5.42-1.03,11.13-1.55,16.99-1.38,5.85,.26,11.51,1.21,16.83,2.64,1.32,.39,2.63,.77,3.93,1.16,1.27,.47,2.53,.93,3.77,1.39,1.26,.42,2.44,1.01,3.63,1.53,1.18,.54,2.37,1.02,3.48,1.64,1.12,.59,2.23,1.18,3.32,1.75,1.07,.61,2.09,1.27,3.12,1.89,.51,.31,1.02,.63,1.52,.94,.5,.32,.96,.67,1.44,1.01,.95,.67,1.88,1.34,2.8,1.99,.9,.68,1.74,1.4,2.59,2.08,.83,.7,1.7,1.33,2.44,2.06,1.51,1.44,3.06,2.73,4.33,4.17,1.31,1.4,2.6,2.69,3.66,4.06,1.08,1.34,2.18,2.55,3.02,3.82,.87,1.24,1.72,2.38,2.44,3.47,.68,1.11,1.29,2.13,1.85,3.04,.27,.46,.55,.88,.78,1.3l.6,1.18c.37,.73,.68,1.35,.94,1.86l.57,1.15c.13,.26,.19,.39,.18,.4Z" style="fill:#263238;"></path><path d="M681,297.24s-26.33,.2-30.72,9.36l13.19,7.27s31.76,.88,31.12,0c-.64-.88-13.58-16.63-13.58-16.63Z" style="fill:#fff;"></path><g style="opacity:.3;"><path d="M605.93,274.05c-1.44-.77-63.65-3.75-63.65-3.75,0,0,64.48,7.32,72.66,7.75,8.18,.43,35.33,3.23,35.33,3.23l-44.34-7.23Z"></path></g><g><path d="M367.66,263.49c-.9-2.54-3.44-4.1-6.12-3.79-7.1,.83-24.58,3.96-22.56,15.53,2.49,14.3,24.48,7.83,24.48,7.83,0,0,4.66-4.69,4.98-13.36,.1-2.7-.25-4.72-.78-6.22Z" style="fill:#EA0719;"></path><path d="M367.66,263.49s.07,.11,.15,.35c.09,.24,.2,.59,.32,1.07,.24,.95,.46,2.38,.45,4.21-.03,1.83-.22,4.07-.93,6.53-.74,2.44-1.91,5.16-4.04,7.57l-.04,.04-.06,.02c-3.26,.89-6.94,1.52-10.9,1.49-1.97-.02-4.02-.24-6.04-.83-1.01-.3-1.99-.73-2.93-1.26-.93-.55-1.78-1.26-2.52-2.08-1.03-1.18-1.73-2.61-2.14-4.06-.39-1.46-.57-2.98-.35-4.45,.22-1.47,.82-2.84,1.65-3.98,.83-1.15,1.86-2.1,2.95-2.87,2.19-1.56,4.56-2.53,6.79-3.29,2.24-.75,4.39-1.25,6.35-1.62,1.97-.37,3.76-.62,5.35-.77,1.64-.12,3.01,.45,3.91,1.13,.91,.69,1.41,1.44,1.67,1.97,.27,.53,.32,.84,.32,.84-.03,.01-.12-.29-.41-.79-.29-.5-.8-1.22-1.7-1.86-.89-.63-2.22-1.15-3.77-1.01-1.56,.18-3.35,.46-5.31,.85-1.95,.4-4.08,.91-6.29,1.67-2.2,.77-4.53,1.75-6.65,3.27-2.1,1.49-3.98,3.74-4.37,6.54-.35,2.75,.45,5.85,2.38,8.1,.7,.78,1.5,1.44,2.39,1.97,.9,.51,1.84,.92,2.81,1.21,1.95,.58,3.95,.8,5.89,.83,3.89,.04,7.55-.57,10.76-1.41l-.09,.06c2.05-2.29,3.26-4.98,4-7.36,.73-2.42,.95-4.63,1.02-6.43,.05-1.81-.13-3.23-.33-4.18-.19-.95-.37-1.44-.34-1.45Z" style="fill:#263238;"></path></g><g style="opacity:.3;"><path d="M197.75,337.92c7.54,10.35,12,23.08,12,36.87,0,11.21-2.96,21.73-8.12,30.83l10.7,.24,291.93,5.18,7.74-.44c-3.48-8.09-5.41-17-5.41-26.36,0-17.99,7.13-34.31,18.69-46.32l-60.91,36.56-3.34,1.27c-14.2,5.39-29.27,8.12-44.46,8.05l-176.61-.86-42.23-45.02Z"></path></g><path d="M283.87,382.71s-.06-.09-.14-.27l-.37-.81c-.33-.75-.79-1.79-1.38-3.13-.6-1.37-1.32-3.04-2.16-4.96-.38-.98-.74-2.09-.96-3.26-.27-1.17-.49-2.42-.69-3.73-.83-5.25-1.48-11.54-2.02-18.54-.52-7-.91-14.71-1-22.81-.07-8.1,.12-15.84,1.05-22.82,.55-3.47,1.26-6.79,2.64-9.63,1.34-2.85,3.05-5.26,4.89-7.2,1.88-1.91,3.84-3.34,5.65-4.44,1.82-1.09,3.5-1.8,4.89-2.34,2.8-1.02,4.44-1.24,4.44-1.24,0,0-.09,.04-.29,.1-.22,.06-.5,.14-.85,.24-.75,.21-1.85,.56-3.23,1.09-1.36,.57-3.02,1.3-4.81,2.4-1.77,1.11-3.7,2.55-5.53,4.44-1.8,1.93-3.47,4.31-4.77,7.12-1.34,2.81-2.02,6.08-2.56,9.52-.9,6.94-1.07,14.66-1,22.75,.09,8.09,.46,15.79,.96,22.78,.5,6.99,1.12,13.28,1.9,18.52,.19,1.31,.39,2.55,.65,3.72,.12,.58,.22,1.16,.4,1.68,.18,.53,.27,1.06,.5,1.54,.8,1.94,1.5,3.61,2.07,4.99,.55,1.35,.98,2.41,1.29,3.16l.32,.83c.07,.19,.1,.29,.09,.29Z" style="fill:#263238;"></path><g><path d="M485.44,299.74h-39.4c-2.08,0-3.76-1.68-3.76-3.76h0c0-2.08,1.68-3.76,3.76-3.76h39.4c2.08,0,3.76,1.68,3.76,3.76h0c0,2.08-1.68,3.76-3.76,3.76Z" style="fill:#EA0719;"></path><path d="M485.44,299.74s.37,0,1.01-.2c.63-.19,1.58-.69,2.2-1.81,.29-.56,.48-1.26,.41-2.02-.06-.76-.37-1.57-.99-2.21-.61-.64-1.51-1.09-2.52-1.11-1.04,0-2.14,0-3.3,.01-9.3,.02-22.09,.05-36.21,.08-.83,0-1.63,.3-2.26,.82-.63,.52-1.05,1.27-1.19,2.05-.15,.79,0,1.62,.37,2.31,.38,.69,1,1.24,1.71,1.55,.72,.32,1.51,.27,2.34,.28,.82,0,1.63,0,2.43,0,1.6,0,3.17,0,4.71,0,6.12,.02,11.63,.04,16.28,.06,4.6,.03,8.34,.06,10.97,.08,1.26,.02,2.26,.04,2.98,.05l.78,.03c.17,0,.26,.02,.26,.03s-.09,.02-.26,.03l-.78,.03c-.72,.01-1.72,.03-2.98,.05-2.63,.02-6.37,.05-10.97,.08-4.65,.02-10.16,.03-16.28,.06-1.53,0-3.1,0-4.71,0-.8,0-1.61,0-2.43,0-.42,0-.8,.01-1.25-.01-.44-.03-.88-.13-1.29-.3-.82-.35-1.53-.97-1.97-1.77-.43-.8-.6-1.75-.43-2.65,.16-.9,.65-1.76,1.36-2.36,.71-.6,1.65-.95,2.59-.95,14.12,.03,26.91,.06,36.21,.08,1.16,0,2.26,.02,3.31,.02,1.09,.04,2.07,.54,2.72,1.25,.66,.7,.98,1.58,1.03,2.39,.06,.82-.16,1.56-.48,2.14-.68,1.17-1.69,1.65-2.35,1.81-.68,.16-1.04,.1-1.04,.1Z" style="fill:#263238;"></path></g><g><path d="M88.63,373.65c-.46,31.74,24.9,57.83,56.64,58.29,31.74,.46,57.84-24.9,58.29-56.63,.46-31.74-24.9-57.84-56.64-58.29-31.74-.46-57.84,24.9-58.29,56.64Z" style="fill:#263238;"></path><path d="M88.64,373.5s0,.1-.01,.15c-.46,31.74,24.9,57.83,56.64,58.29,31.74,.46,57.84-24.9,58.29-56.63,0-.05,0-.1,0-.15l-114.91-1.66Z" style="fill:#263238;"></path><path d="M105.75,373.9c-.32,22.28,17.48,40.6,39.76,40.93,22.28,.32,40.6-17.48,40.93-39.76,.32-22.28-17.48-40.6-39.76-40.93-22.28-.32-40.6,17.48-40.92,39.76Z" style="fill:#fafafa;"></path><path d="M146.68,334.14c-22.28-.32-40.6,17.48-40.92,39.76l80.69,1.16c.32-22.28-17.48-40.6-39.76-40.93Z" style="fill:#e0e0e0;"></path><path d="M121.52,374.12c-.2,13.57,10.65,24.73,24.22,24.93,13.57,.2,24.73-10.65,24.93-24.22,.2-13.57-10.65-24.73-24.22-24.93-13.57-.2-24.73,10.65-24.93,24.22Z" style="fill:#263238;"></path></g><g><circle cx="566.75" cy="379.55" r="57.47" transform="translate(165.84 931.39) rotate(-87.81)" style="fill:#263238;"></circle><path d="M509.29,378.57s0,.1-.01,.15c-.46,31.74,24.9,57.83,56.64,58.29,31.74,.46,57.84-24.9,58.29-56.63,0-.05,0-.1,0-.15l-114.91-1.66Z" style="fill:#263238;"></path><path d="M526.4,378.96c-.32,22.28,17.48,40.6,39.76,40.93,22.28,.32,40.6-17.48,40.93-39.76,.32-22.28-17.48-40.6-39.76-40.93-22.28-.32-40.6,17.48-40.92,39.76Z" style="fill:#fafafa;"></path><path d="M567.33,339.2c-22.28-.32-40.6,17.48-40.92,39.76l80.69,1.16c.32-22.28-17.48-40.6-39.76-40.93Z" style="fill:#e0e0e0;"></path><path d="M542.17,379.19c-.2,13.57,10.65,24.73,24.22,24.93,13.57,.2,24.73-10.65,24.93-24.22,.2-13.57-10.65-24.73-24.22-24.93-13.57-.2-24.73,10.65-24.93,24.22Z" style="fill:#263238;"></path></g></g><path d="M214.64,310.53s-.64,0,.4,1.2,3.37,4.41,5.53,3.93c2.16-.48,12.74-4.41,10.9-5.13-1.84-.72-15.82-1.18-16.83,0Z" style="fill:#fff;"></path><g style="opacity:.3;"><path d="M640.19,384.24l58.29-9.76-2.47,9.5-12.09,12.67-46.47,6.56s2.88-14.81,2.75-18.97Z"></path></g><g style="opacity:.3;"><path d="M91.2,403.18c-3.01-4.73-6.33-20.7-6.33-20.7l-32.61-3.1-6.91,17.27s1.24,3.91,15.88,5.01c14.64,1.11,29.97,1.52,29.97,1.52Z"></path></g></g><g><polygon points="418.69 284.19 442.24 273.94 433.86 284.19 418.69 284.19" style="fill:#455a64;"></polygon><g><path d="M437.94,248.08s-3.94-11.69,8.19-18.71c7.93-4.6,15.23-1.77,19.41,.77,6.96,4.24,8.14,12.86,7.9,18.55-.31,7.34-12.05,18.73-12.05,18.73l-23.45-19.34Z" style="fill:#263238;"></path><g><path d="M443.53,274.15c.55-.11,.37-6.78,.37-6.76,0,0-6.32-1.87-6.62-10.45-.15-4.27,.91-11.11,1.95-16.68,.94-5.01,6.44-11.08,12.64-9.99l2.81,.17,9.79,6.08c1.51,.35,2.5,1.8,2.28,3.33l-6.3,36.35-6.72,1.22-11.75,.42,1.54-3.7Z" style="fill:#ffbf9d;"></path><path d="M450.02,257.22c.02-.45-.15-.87-.41-1.19-.52-.64-1.42-.85-2.16-.52-.74,.34-1.29,1.21-1.32,2.1h0c.28,.58,.79,1.02,1.4,1.19,.1,.03,.19,.05,.29,.06,.48,.07,.99,0,1.42-.29,.43-.29,.75-.8,.78-1.35Z" style="fill:#ff9a6c;"></path><path d="M440.09,247.45c-.09,.57,.32,1.11,.91,1.22,.59,.11,1.14-.27,1.23-.84,.09-.57-.32-1.11-.91-1.22-.59-.11-1.14,.27-1.23,.84Z" style="fill:#263238;"></path><path d="M440.62,243.39c.12,.16,1.01-.35,2.17-.2,1.16,.13,1.94,.83,2.08,.71,.07-.06-.04-.33-.37-.64-.33-.31-.92-.65-1.65-.74-.72-.09-1.37,.11-1.75,.34-.39,.23-.54,.47-.49,.54Z" style="fill:#263238;"></path><path d="M446.4,253.73c.01-.07-.69-.28-1.85-.57-.29-.07-.57-.16-.59-.37-.04-.22,.12-.53,.31-.85,.37-.68,.75-1.4,1.16-2.15,1.61-3.07,2.82-5.6,2.7-5.67-.12-.06-1.53,2.37-3.15,5.44-.39,.76-.76,1.48-1.12,2.17-.15,.32-.39,.68-.3,1.15,.05,.23,.25,.42,.43,.49,.18,.08,.35,.11,.5,.13,1.17,.21,1.9,.3,1.91,.24Z" style="fill:#263238;"></path><path d="M443.9,267.39s5.62,1.06,11.65-1.62c0,0-3.29,5.71-11.62,3.89l-.03-2.27Z" style="fill:#ff9a6c;"></path><path d="M449.72,254.96c-.19-.03-.35,1.23-1.54,1.99-1.19,.77-2.51,.46-2.55,.63-.03,.08,.27,.28,.83,.37,.55,.09,1.39,0,2.12-.46,.73-.47,1.1-1.17,1.21-1.68,.11-.52,.01-.85-.08-.85Z" style="fill:#263238;"></path><path d="M441.01,240.61c.16,.31,1.07,.23,2.1,.44,1.04,.18,1.86,.59,2.12,.37,.12-.11,.04-.4-.29-.73-.32-.33-.9-.67-1.61-.8-.71-.14-1.37-.04-1.79,.15-.42,.19-.6,.43-.53,.58Z" style="fill:#263238;"></path><path d="M452.52,249.24c-.07,.57-.61,.98-1.21,.92-.6-.06-1.02-.58-.95-1.15,.07-.57,.61-.98,1.21-.92,.6,.06,1.02,.58,.95,1.15Z" style="fill:#263238;"></path><path d="M456.27,245.73c-.16,.12-.87-.61-2.03-.8-1.15-.2-2.1,.26-2.2,.1-.05-.07,.13-.3,.54-.51,.41-.21,1.07-.37,1.79-.25,.72,.12,1.28,.48,1.59,.81,.31,.33,.39,.6,.32,.65Z" style="fill:#263238;"></path><path d="M456.14,242.6c-.27,.23-1.12-.19-2.19-.38-1.06-.22-2.01-.14-2.17-.45-.07-.15,.12-.39,.55-.57,.43-.18,1.12-.28,1.85-.14,.73,.14,1.33,.48,1.66,.81,.34,.33,.42,.62,.29,.73Z" style="fill:#263238;"></path><path d="M462.81,253.61c.08-.63,.99-2.02,1.62-2.04,1.69-.05,4.65,.45,4.16,4.65-.67,5.74-6.3,3.89-6.29,3.72,0-.13,.24-4.17,.51-6.33Z" style="fill:#ffbf9d;"></path><path d="M464.12,258.03s.09,.08,.25,.18c.16,.09,.43,.18,.75,.1,.63-.15,1.26-1.06,1.4-2.09,.08-.52,.02-1.03-.11-1.47-.13-.44-.36-.77-.66-.86-.3-.11-.53,.05-.62,.2-.1,.15-.07,.27-.1,.28-.02,.01-.11-.11-.04-.34,.04-.11,.12-.24,.27-.33,.15-.1,.36-.13,.57-.08,.44,.08,.79,.54,.94,1.01,.17,.48,.24,1.06,.16,1.64-.17,1.15-.89,2.17-1.75,2.31-.42,.06-.74-.1-.9-.26-.16-.16-.18-.29-.16-.3Z" style="fill:#ff9a6c;"></path><path d="M464.66,251.63l-1.71,1.24c-5.16-7.09-14.67-24.21-14.15-23.2,0,0,4.59-.99,9.08,.63,4.49,1.62,12.87,5.52,11.76,10.96-1.12,5.44-4.98,10.37-4.98,10.37Z" style="fill:#263238;"></path></g><path d="M430.47,284.19l12.16-10.59,18.93-3.82s6.06,6.7,5.4,12.79l.05,.78-36.54,.84Z" style="fill:#455a64;"></path><path d="M510.17,225.36c-1.55,1.35-2.18,3.52-3.35,5.25-2.18,3.26-6.1,4.76-9.72,4.94-3.61,.18-7.09-.71-10.63-1.13-3.54-.42-6.57-1.14-10.51,.5-6.96,2.89-10.54,12.26-4.91,15.64l3.34-2.36c6.63,6.39,18.7,11.63,28,12.23,1.84,.12,3.85,.07,5.47-1.06,1.62-1.13,2.53-3.73,1.33-5.11,3.06-.89,6.19-1.83,8.86-3.79,2.67-1.95,4.82-5.14,4.74-8.42-.08-3.27-3.04-6.14-6.08-5.17,1.74-2.93,2.59-6.66,1.29-9.54-1.31-2.88-5.28-4.18-7.81-1.97Z" style="fill:#263238;"></path><path d="M473.86,243.6c.12-.05,.68,1.29,.63,3.05-.03,1.78-.82,3.06-.93,2.98-.14-.06,.39-1.33,.41-2.99,.05-1.65-.27-3-.11-3.04Z" style="fill:#455a64;"></path><path d="M451.73,230.21s.24,.13,.67,.41c.47,.31,1.1,.72,1.88,1.23,1.65,1.03,4.02,2.64,7.32,3.78,3.3,1.17,7.49,1.48,12.13,2.05,2.32,.31,4.76,.75,7.18,1.65,1.2,.46,2.4,1.03,3.51,1.78,.55,.37,1.11,.78,1.57,1.32,.46,.52,.84,1.22,.81,2v.45l-.4-.23c-.43-.26-.91-.53-1.41-.77-2.5-1.17-5.23-1.56-7.84-1.68-2.62-.12-5.17,.03-7.6,.03-2.43,0-4.77-.13-6.9-.62-2.13-.48-4.03-1.32-5.54-2.4-3.04-2.16-4.8-4.65-6.03-6.28-.6-.83-1.05-1.49-1.35-1.94-.3-.45-.45-.69-.43-.7,.01-.01,.19,.21,.52,.64,.36,.47,.83,1.09,1.43,1.88,1.27,1.59,3.07,4.02,6.07,6.09,1.49,1.04,3.34,1.83,5.43,2.28,2.09,.46,4.39,.58,6.8,.56,2.42-.01,4.97-.18,7.62-.06,2.64,.11,5.45,.5,8.04,1.72,.52,.25,1.01,.53,1.46,.8l-.4,.21c.02-.6-.27-1.17-.69-1.64-.41-.48-.93-.87-1.47-1.23-1.07-.73-2.23-1.28-3.4-1.74-2.35-.89-4.77-1.34-7.06-1.66-4.6-.59-8.84-.94-12.18-2.18-3.34-1.21-5.7-2.87-7.32-3.95-.81-.56-1.42-1.01-1.83-1.31-.41-.31-.62-.48-.61-.49Z" style="fill:#455a64;"></path></g><path d="M433.31,284.19c-.12-.08,1.12-2.12,2.94-4.41,1.82-2.3,3.53-3.96,3.63-3.86,.11,.1-1.41,1.91-3.22,4.19-1.81,2.28-3.22,4.17-3.35,4.08Z" style="fill:#263238;"></path><path d="M461.44,273.91c-.03,.1-1.06-.38-2.82-.34-1.74,.02-4.16,.72-6.25,2.39-2.09,1.68-3.45,3.76-4.37,5.26-.91,1.52-1.42,2.5-1.49,2.47-.06-.03,.33-1.06,1.18-2.65,.85-1.57,2.19-3.74,4.36-5.49,2.19-1.75,4.76-2.43,6.58-2.35,.91,.03,1.64,.19,2.11,.37,.48,.17,.72,.32,.71,.34Z" style="fill:#263238;"></path></g></g></g><g id="freepik--Lines--inject-233"><g><path d="M328.68,420.69c0,.14-18.17,.26-40.58,.26s-40.59-.12-40.59-.26,18.17-.26,40.59-.26,40.58,.12,40.58,.26Z" style="fill:#263238;"></path><path d="M352.54,426.65c0,.14-18.17,.26-40.58,.26s-40.59-.12-40.59-.26,18.17-.26,40.59-.26,40.58,.12,40.58,.26Z" style="fill:#263238;"></path></g><g><path d="M370.8,329.61c0,.14-9.71,.26-21.68,.26s-21.68-.12-21.68-.26,9.7-.26,21.68-.26,21.68,.12,21.68,.26Z" style="fill:#263238;"></path><path d="M383.54,335.57c0,.14-9.71,.26-21.68,.26s-21.68-.12-21.68-.26,9.7-.26,21.68-.26,21.68,.12,21.68,.26Z" style="fill:#263238;"></path></g></g></svg>
